<svg xmlns="http://www.w3.org/2000/svg" viewBox="0 0 64 64">
  <defs>
    <linearGradient id="g" x1="0" y1="0" x2="1" y2="1">
      <stop offset="0" stop-color="#2563eb"/>
      <stop offset="1" stop-color="#0f3d91"/>
    </linearGradient>
  </defs>
  <rect width="64" height="64" rx="14" fill="url(#g)"/>
  <path d="M20 14h18l10 10v24a4 4 0 0 1-4 4H20a4 4 0 0 1-4-4V18a4 4 0 0 1 4-4z" fill="#fff" opacity=".95"/>
  <path d="M38 14v8a2 2 0 0 0 2 2h8" fill="#bfdbfe"/>
  <rect x="22" y="28" width="16" height="3" rx="1.5" fill="#93c5fd"/>
  <rect x="22" y="34" width="12" height="3" rx="1.5" fill="#93c5fd"/>
  <circle cx="42" cy="44" r="9" fill="#10b981"/>
  <path d="M38 44.2l2.7 2.7 5.2-5.4" stroke="#fff" stroke-width="2.6" fill="none" stroke-linecap="round" stroke-linejoin="round"/>
</svg>
